<svg xmlns="http://www.w3.org/2000/svg" viewBox="0 0 200 200" fill="none">
  <line x1="35" y1="62" x2="165" y2="62" stroke="#94a3b8" stroke-width="4" stroke-linecap="round" stroke-linejoin="round"/>
  <rect x="27" y="50" width="16" height="24" rx="3" fill="#64748b"/>
  <rect x="157" y="50" width="16" height="24" rx="3" fill="#64748b"/>
  <circle cx="100" cy="40" r="12" fill="#64748b"/>
  <line x1="100" y1="52" x2="100" y2="68" stroke="#64748b" stroke-width="5" stroke-linecap="round" stroke-linejoin="round"/>
  <line x1="100" y1="68" x2="100" y2="108" stroke="#64748b" stroke-width="5" stroke-linecap="round" stroke-linejoin="round"/>
  <line x1="100" y1="68" x2="80" y2="68" stroke="#64748b" stroke-width="4" stroke-linecap="round" stroke-linejoin="round"/>
  <line x1="100" y1="68" x2="120" y2="68" stroke="#64748b" stroke-width="4" stroke-linecap="round" stroke-linejoin="round"/>
  <line x1="80" y1="68" x2="72" y2="62" stroke="#64748b" stroke-width="3" stroke-linecap="round" stroke-linejoin="round"/>
  <line x1="120" y1="68" x2="128" y2="62" stroke="#64748b" stroke-width="3" stroke-linecap="round" stroke-linejoin="round"/>
  <line x1="100" y1="108" x2="72" y2="132" stroke="#64748b" stroke-width="5" stroke-linecap="round" stroke-linejoin="round"/>
  <line x1="100" y1="108" x2="128" y2="132" stroke="#64748b" stroke-width="5" stroke-linecap="round" stroke-linejoin="round"/>
  <line x1="72" y1="132" x2="68" y2="168" stroke="#64748b" stroke-width="5" stroke-linecap="round" stroke-linejoin="round"/>
  <line x1="128" y1="132" x2="132" y2="168" stroke="#64748b" stroke-width="5" stroke-linecap="round" stroke-linejoin="round"/>
  <rect x="58" y="166" width="22" height="6" rx="3" fill="#64748b"/>
  <rect x="122" y="166" width="22" height="6" rx="3" fill="#64748b"/>
</svg>