<svg xmlns="http://www.w3.org/2000/svg" viewBox="0 0 200 200" fill="none">
  <line x1="35" y1="68" x2="165" y2="68" stroke="#94a3b8" stroke-width="4" stroke-linecap="round" stroke-linejoin="round"/>
  <rect x="27" y="56" width="16" height="24" rx="3" fill="#64748b"/>
  <rect x="157" y="56" width="16" height="24" rx="3" fill="#64748b"/>
  <circle cx="100" cy="42" r="12" fill="#64748b"/>
  <line x1="100" y1="54" x2="100" y2="72" stroke="#64748b" stroke-width="5" stroke-linecap="round" stroke-linejoin="round"/>
  <line x1="100" y1="72" x2="100" y2="108" stroke="#64748b" stroke-width="5" stroke-linecap="round" stroke-linejoin="round"/>
  <line x1="100" y1="72" x2="75" y2="72" stroke="#64748b" stroke-width="4" stroke-linecap="round" stroke-linejoin="round"/>
  <line x1="100" y1="72" x2="125" y2="72" stroke="#64748b" stroke-width="4" stroke-linecap="round" stroke-linejoin="round"/>
  <line x1="75" y1="72" x2="70" y2="68" stroke="#64748b" stroke-width="3" stroke-linecap="round" stroke-linejoin="round"/>
  <line x1="125" y1="72" x2="130" y2="68" stroke="#64748b" stroke-width="3" stroke-linecap="round" stroke-linejoin="round"/>
  <line x1="100" y1="108" x2="68" y2="135" stroke="#64748b" stroke-width="5" stroke-linecap="round" stroke-linejoin="round"/>
  <line x1="100" y1="108" x2="132" y2="135" stroke="#64748b" stroke-width="5" stroke-linecap="round" stroke-linejoin="round"/>
  <line x1="68" y1="135" x2="62" y2="168" stroke="#64748b" stroke-width="5" stroke-linecap="round" stroke-linejoin="round"/>
  <line x1="132" y1="135" x2="138" y2="168" stroke="#64748b" stroke-width="5" stroke-linecap="round" stroke-linejoin="round"/>
  <rect x="52" y="166" width="22" height="6" rx="3" fill="#64748b"/>
  <rect x="128" y="166" width="22" height="6" rx="3" fill="#64748b"/>
</svg>