<svg xmlns="http://www.w3.org/2000/svg" viewBox="0 0 200 200" fill="none">
  <line x1="35" y1="65" x2="165" y2="65" stroke="#94a3b8" stroke-width="4" stroke-linecap="round" stroke-linejoin="round"/>
  <rect x="27" y="53" width="16" height="24" rx="3" fill="#64748b"/>
  <rect x="157" y="53" width="16" height="24" rx="3" fill="#64748b"/>
  <circle cx="100" cy="42" r="12" fill="#64748b"/>
  <line x1="100" y1="54" x2="100" y2="70" stroke="#64748b" stroke-width="5" stroke-linecap="round" stroke-linejoin="round"/>
  <line x1="100" y1="70" x2="100" y2="105" stroke="#64748b" stroke-width="5" stroke-linecap="round" stroke-linejoin="round"/>
  <line x1="100" y1="70" x2="78" y2="70" stroke="#64748b" stroke-width="4" stroke-linecap="round" stroke-linejoin="round"/>
  <line x1="100" y1="70" x2="122" y2="70" stroke="#64748b" stroke-width="4" stroke-linecap="round" stroke-linejoin="round"/>
  <line x1="78" y1="70" x2="72" y2="65" stroke="#64748b" stroke-width="3" stroke-linecap="round" stroke-linejoin="round"/>
  <line x1="122" y1="70" x2="128" y2="65" stroke="#64748b" stroke-width="3" stroke-linecap="round" stroke-linejoin="round"/>
  <line x1="100" y1="105" x2="75" y2="135" stroke="#64748b" stroke-width="5" stroke-linecap="round" stroke-linejoin="round"/>
  <line x1="100" y1="105" x2="125" y2="135" stroke="#64748b" stroke-width="5" stroke-linecap="round" stroke-linejoin="round"/>
  <line x1="75" y1="135" x2="72" y2="170" stroke="#64748b" stroke-width="5" stroke-linecap="round" stroke-linejoin="round"/>
  <line x1="125" y1="135" x2="128" y2="170" stroke="#64748b" stroke-width="5" stroke-linecap="round" stroke-linejoin="round"/>
  <rect x="62" y="168" width="22" height="6" rx="3" fill="#64748b"/>
  <rect x="118" y="168" width="22" height="6" rx="3" fill="#64748b"/>
</svg>